<?xml version="1.0" encoding="utf-8"?>
<!-- Generator: Adobe Illustrator 19.0.0, SVG Export Plug-In . SVG Version: 6.00 Build 0)  -->
<svg version="1.1" id="Layer_1" xmlns="http://www.w3.org/2000/svg" xmlns:xlink="http://www.w3.org/1999/xlink" x="0px" y="0px"
	 viewBox="0 0 41.7 30.3" style="enable-background:new 0 0 41.7 30.3;" xml:space="preserve">
<style type="text/css">
	.st0{fill:#656668;}
</style>
<polygon class="st0" points="18.9,10.4 29.1,10.4 29.1,5.6 40.7,12.9 29.1,20.1 29.1,15.3 18.9,15.3 "/>
<g>
	<path id="XMLID_106_" class="st0" d="M22.2,24.5h-15c-4,0-5.5-3.3-5.5-5.5V6.8c0-4,3.3-5.5,5.5-5.5h11.7c4.4,0,5.5,2.9,5.5,4.4V9
		h-2.5V5.8c0-0.3-0.2-1.9-3-1.9H7.2c-0.5,0-3,0.2-3,3V19c0,0.5,0.2,3,3,3h14.7l0-4.3h2.5v4.6C24.4,23.7,23.2,24.5,22.2,24.5z"/>
</g>
<path class="st0" d="M3,3.9c0,0-1.3-0.5-1.3,1v18.5c0,0,0,1.4,1.3,1.9l11.8,4c0,0,1.3,0.5,1.3-1V9.9c0,0,0-1.4-1.3-1.9L3,3.9z"/>
</svg>
